# xmcd CD database file generated by OrangeCD 5.0
#
# Track frame offsets:
#	150
#	12121
#	25034
#	37787
#	49566
#	61549
#	74347
#	84982
#	97278
#	110775
#	124360
#	136876
#	148063
#	161065
#	174364
#	188249
#	199824
#	213106
#	225581
#	236453
#	247260
#	259754
#	271433
#	282816
#
# Disc length: 3922 seconds
#
# Revision: 2
# Processed by: cddbd v1.4PL0 Copyright (c) Steve Scherf et al.
# Submitted via: OrangeCD 5.0
#
DISCID=530f5018
DTITLE=Brown, Charles - The Classic Earliest Recordings (1946-48, Los Angeles) 
DTITLE=[CDThree)
DYEAR=2003
DGENRE=Blues
TTITLE0=Huggin' Bug
TTITLE1=Gloria
TTITLE2=I Wouldn't Mind
TTITLE3=Now That You're Gone
TTITLE4=St. Louis Blues
TTITLE5=Bobby Sox Blues
TTITLE6=Juke Box Lil
TTITLE7=Why Is Love Like That
TTITLE8=It's Over
TTITLE9=Changeable Woman Blues
TTITLE10=I Surrender Dear
TTITLE11=Better Watch What You Do
TTITLE12=I Love To Make Love To You
TTITLE13=New Orleans Blues
TTITLE14=I Cried For You
TTITLE15=Moonrise
TTITLE16=I'm Looking For Love
TTITLE17=Merry Christmas Baby
TTITLE18=Peek-A-Boo
TTITLE19=Don't Get Salty Sugar
TTITLE20=Lonesome Blues
TTITLE21=Soothe Me
TTITLE22=I'll Miss You So
TTITLE23=Money's Getting Cheaper
EXTD=
EXTT0=
EXTT1=
EXTT2=
EXTT3=
EXTT4=
EXTT5=
EXTT6=
EXTT7=
EXTT8=
EXTT9=
EXTT10=
EXTT11=
EXTT12=
EXTT13=
EXTT14=
EXTT15=
EXTT16=
EXTT17=
EXTT18=
EXTT19=
EXTT20=
EXTT21=
EXTT22=
EXTT23=
PLAYORDER=
